<?xml version="1.0" standalone="no"?>
<!DOCTYPE svg PUBLIC "-//W3C//DTD SVG 20010904//EN"
 "http://www.w3.org/TR/2001/REC-SVG-20010904/DTD/svg10.dtd">
<svg version="1.0" xmlns="http://www.w3.org/2000/svg"
 width="867.000000pt" height="867.000000pt" viewBox="0 0 867.000000 867.000000"
 preserveAspectRatio="xMidYMid meet">
<metadata>
Created by potrace 1.11, written by Peter Selinger 2001-2013
</metadata>
<g transform="translate(0.000000,867.000000) scale(0.100000,-0.100000)"
fill="#000000" stroke="none">
<path d="M1479 8666 c-2 -2 -31 -7 -64 -10 -90 -10 -278 -60 -380 -101 -478
-192 -836 -590 -975 -1083 -61 -221 -58 -34 -58 -3132 -1 -1758 3 -2858 9
-2895 5 -33 12 -76 14 -95 41 -272 206 -599 417 -825 264 -282 639 -472 1008
-512 91 -9 5656 -11 5755 -1 39 4 77 9 85 12 8 4 29 8 45 10 169 21 418 124
614 255 79 52 291 233 291 249 1 4 21 30 46 57 52 57 155 211 201 300 49 95
104 242 129 344 25 98 29 123 42 235 10 76 8 5687 -1 5751 -66 450 -266 807
-613 1093 -166 136 -431 263 -653 312 -48 10 -102 22 -121 26 -34 8 -5783 18
-5791 10z m2696 -1331 c198 -50 363 -195 442 -390 17 -43 30 -81 28 -83 -1 -2
-33 -10 -71 -17 -290 -61 -505 -324 -506 -619 -1 -45 3 -101 7 -125 l7 -44
-98 6 c-274 15 -494 183 -584 447 -33 95 -37 260 -9 360 72 259 293 452 554
482 55 7 169 -2 230 -17z m756 -621 c182 -53 331 -204 384 -387 34 -118 20
-273 -34 -387 l-26 -55 -480 0 -480 0 -23 49 c-131 276 -20 604 251 740 128
64 276 79 408 40z m604 -999 c160 -75 189 -288 53 -397 -71 -58 -18 -56 -1237
-56 -919 0 -1132 3 -1163 14 -58 20 -102 58 -132 114 -75 137 10 314 164 339
19 4 538 6 1155 6 1074 -1 1122 -2 1160 -20z m-14 -755 c1 -8 1 -52 1 -97 l0
-83 49 -14 c229 -68 402 -266 434 -496 9 -61 9 -2102 0 -2169 -17 -133 -90
-268 -195 -363 -76 -70 -157 -113 -256 -138 -75 -20 -113 -20 -1195 -20 -1093
0 -1118 1 -1195 21 -221 57 -386 229 -439 454 -13 59 -15 202 -15 1140 1 1010
2 1076 19 1136 54 187 158 313 327 395 l91 45 1 87 c1 48 1 94 1 102 1 13 139
15 1186 15 1046 0 1185 -2 1186 -15z"/>
<path d="M3790 3963 c-146 -37 -282 -148 -337 -273 -5 -14 -15 -36 -21 -50
-34 -80 -36 -227 -3 -330 43 -138 68 -168 511 -613 l415 -417 383 382 c390
390 452 459 503 560 65 128 75 305 26 426 -121 294 -455 410 -737 255 -68 -37
-139 -89 -153 -110 -12 -19 -31 -16 -53 8 -52 57 -211 144 -301 165 -55 12
-180 11 -233 -3z"/>
</g>
</svg>
